<svg xmlns="http://www.w3.org/2000/svg" width="154.989" height="83.848" viewBox="0 0 154.989 83.848">
  <defs>
    <style>
      .cls-1 {
        fill: #292255;
      }
    </style>
  </defs>
  <g id="Group_279" data-name="Group 279" transform="translate(-280.084 -844.954)">
    <path id="Path_152" data-name="Path 152" class="cls-1" d="M315.96,844.954l-35.876,20.962V907.84L315.96,928.8l35.876-20.962V865.916Zm0,26.411,18.626-10.883,3.675,2.147-22.3,13.03-22.3-13.03,3.675-2.147ZM301.31,858.159l3.479-2.033,11.171,6.527,11.171-6.527,3.479,2.033-14.651,8.56ZM315.96,880.3l26.276-15.353,3.638,2.125L315.96,884.555l-29.913-17.478,3.638-2.125Zm7.2-26.5-7.2,4.2-7.2-4.2,7.2-4.2Zm-7.2,70.353-31.9-18.639V870.561l31.9,18.639,31.9-18.639v34.956Z"/>
    <g id="Group_278" data-name="Group 278" transform="translate(363.62 853.204)">
      <g id="Group_254" data-name="Group 254" transform="translate(1.09 0)">
        <path id="Path_153" data-name="Path 153" class="cls-1" d="M1612.394,984.494c0,.407-.012.735-.035.976a3.031,3.031,0,0,1-.214.8,2.069,2.069,0,0,1-.5.75,2.884,2.884,0,0,1-1.947.581,3.37,3.37,0,0,1-2.117-.609,1.655,1.655,0,0,1-.572-.828,6.555,6.555,0,0,1-.147-1.65V973.854h-4.519v9.566a16.893,16.893,0,0,0,.287,3.4,5.052,5.052,0,0,0,1.411,2.514,6.281,6.281,0,0,0,2.154,1.4,8.534,8.534,0,0,0,2,.6,11.706,11.706,0,0,0,1.363.085,8.053,8.053,0,0,0,1.324-.122,14.084,14.084,0,0,0,1.874-.495,5.739,5.739,0,0,0,2.184-1.337,5.858,5.858,0,0,0,1.492-2.356,11.866,11.866,0,0,0,.457-3.68v-9.566h-4.5Z" transform="translate(-1602.345 -973.854)"/>
        <path id="Path_154" data-name="Path 154" class="cls-1" d="M1882.878,973.854l.158,10.12-5.778-10.04-.046-.08h-4.333v17.174h4.332l-.135-9.982,5.732,9.9.046.08h4.333V973.854Z" transform="translate(-1855.564 -973.854)"/>
      </g>
      <path id="Path_155" data-name="Path 155" class="cls-1" d="M1615.43,1303.655a12.88,12.88,0,0,0,1.189-.536l.011-.006a4.67,4.67,0,0,0,.8-.641,4.754,4.754,0,0,0,1.346-3.552,6.186,6.186,0,0,0-.68-2.893,5.437,5.437,0,0,0-4.827-2.71c-.321-.016-.8-.024-1.423-.024h-7.662v17.174h4.519v-6.016h2.341l3.326,6.016h4.947Zm-1.122-4.832a1.885,1.885,0,0,1-1.285,2.022,3.181,3.181,0,0,1-1.055.158h-3.284v-4.264h3.379C1613.573,1296.739,1614.308,1297.421,1614.308,1298.823Z" transform="translate(-1602.98 -1272.847)"/>
      <path id="Path_156" data-name="Path 156" class="cls-1" d="M1860.981,1306.828v-3.691h7.619v-3.519h-7.619v-2.76h8.162v-3.567h-12.634v17.174H1869.9v-3.638Z" transform="translate(-1839.152 -1272.847)"/>
      <path id="Path_157" data-name="Path 157" class="cls-1" d="M2087.962,1293.292H2083.4l-6.219,16.959-.079.215h4.782l.825-2.7h5.9l.825,2.7h4.782Zm-.4,11.125h-3.794l1.844-6.392Z" transform="translate(-2045.625 -1272.847)"/>
      <path id="Path_158" data-name="Path 158" class="cls-1" d="M2369.034,1306.589v-13.3h-4.472v17.174h10.983v-3.877Z" transform="translate(-2314.689 -1272.847)"/>
      <g id="Group_255" data-name="Group 255" transform="translate(0 40.643)">
        <path id="Path_159" data-name="Path 159" class="cls-1" d="M1600.478,1620.68a5.514,5.514,0,0,1-.66,2.626q-1.439,2.65-5.237,3.1a12.757,12.757,0,0,1-1.675.119,9.575,9.575,0,0,1-6.275-2.029,13.452,13.452,0,0,1-1.321-1.408l3.161-2.005q.613.621.731.716a6.126,6.126,0,0,0,4.081,1.409,4.434,4.434,0,0,0,1.3-.167,5.061,5.061,0,0,0,.531-.179,2.442,2.442,0,0,0,.79-.585,1.425,1.425,0,0,0,.448-1.027,1.386,1.386,0,0,0-.118-.573,1.013,1.013,0,0,0-.366-.43,4.6,4.6,0,0,0-.484-.287,2.961,2.961,0,0,0-.661-.215q-.424-.1-.684-.131t-.731-.1l-.661-.084a18.226,18.226,0,0,1-2.359-.43,5.733,5.733,0,0,1-3.138-1.766,3.725,3.725,0,0,1-.708-1.241,5.182,5.182,0,0,1-.212-1.48,8.135,8.135,0,0,1,.094-1.17,4.771,4.771,0,0,1,1.439-2.7,7.191,7.191,0,0,1,5.19-1.767,9.473,9.473,0,0,1,5.5,1.671,23.136,23.136,0,0,1,1.84,1.5l-3.067,2.22a7.178,7.178,0,0,0-2.807-1.838,7.993,7.993,0,0,0-1.557-.239,2.71,2.71,0,0,0-1.828.561,1.619,1.619,0,0,0-.649,1.229,1.207,1.207,0,0,0,.354.883,1.477,1.477,0,0,0,.366.31,1.779,1.779,0,0,0,.519.191q.318.071.554.107t.755.107l.849.119q1.226.192,2.784.549a4.492,4.492,0,0,1,3.586,2.6A5.018,5.018,0,0,1,1600.478,1620.68Z" transform="translate(-1585.31 -1608.887)"/>
        <path id="Path_160" data-name="Path 160" class="cls-1" d="M1851.008,1618.546h-4.317v13.536h-4.2v-13.536h-4.341v-3.318h12.856Z" transform="translate(-1821.97 -1614.822)"/>
        <path id="Path_161" data-name="Path 161" class="cls-1" d="M2039.833,1632.082H2035.4l-.826-2.7h-6.133l-.826,2.7h-4.435l6.18-16.854h4.34Zm-6.2-5.73-2.17-7.114-2.052,7.114Z" transform="translate(-1995.155 -1614.822)"/>
        <path id="Path_162" data-name="Path 162" class="cls-1" d="M2280.77,1618.546h-4.317v13.536h-4.2v-13.536h-4.341v-3.318h12.856Z" transform="translate(-2224.225 -1614.822)"/>
        <path id="Path_163" data-name="Path 163" class="cls-1" d="M2510.606,1632.082h-13.069v-16.854h12.314v3.247h-8.162v3.08h7.619v3.2h-7.619v4.011h8.917Z" transform="translate(-2439.153 -1614.822)"/>
      </g>
      <g id="Group_256" data-name="Group 256" transform="translate(1.575 63.413)">
        <path id="Path_164" data-name="Path 164" class="cls-1" d="M1609.919,1969.9v-3.707h1.323a1.983,1.983,0,0,1,.55.067,1,1,0,0,1,.374.191.727.727,0,0,1,.211.3,1.047,1.047,0,0,1,.066.378,1,1,0,0,1-.051.337.749.749,0,0,1-.132.237.616.616,0,0,1-.186.149.772.772,0,0,1-.216.075v.01a.825.825,0,0,1,.567.3,1,1,0,0,1,.186.618,1.205,1.205,0,0,1-.089.489.832.832,0,0,1-.247.324.985.985,0,0,1-.379.178,2.026,2.026,0,0,1-.481.054Zm.346-2.07h.875a1.879,1.879,0,0,0,.453-.046.764.764,0,0,0,.3-.136.5.5,0,0,0,.16-.222.867.867,0,0,0,.048-.3.7.7,0,0,0-.056-.3.447.447,0,0,0-.178-.2.908.908,0,0,0-.318-.108,2.928,2.928,0,0,0-.481-.033h-.8Zm0,1.771h.88a4.149,4.149,0,0,0,.5-.026.907.907,0,0,0,.349-.106.5.5,0,0,0,.206-.227.924.924,0,0,0,.069-.389.786.786,0,0,0-.076-.373.531.531,0,0,0-.219-.219,1.011,1.011,0,0,0-.341-.106,3.163,3.163,0,0,0-.443-.028h-.921Z" transform="translate(-1609.919 -1966.091)"/>
        <path id="Path_165" data-name="Path 165" class="cls-1" d="M1662.946,1969.9v-3.707h.346v3.409h1.964v.3Z" transform="translate(-1659.552 -1966.091)"/>
        <path id="Path_166" data-name="Path 166" class="cls-1" d="M1704.923,1966.618a2.575,2.575,0,0,1,.109-.762,1.841,1.841,0,0,1,.323-.62,1.541,1.541,0,0,1,.529-.42,1.634,1.634,0,0,1,.728-.154,1.75,1.75,0,0,1,.751.152,1.521,1.521,0,0,1,.539.417,1.814,1.814,0,0,1,.326.623,2.609,2.609,0,0,1,.109.765,2.539,2.539,0,0,1-.109.754,1.847,1.847,0,0,1-.323.618,1.527,1.527,0,0,1-.534.42,1.863,1.863,0,0,1-1.486,0,1.526,1.526,0,0,1-.534-.42,1.808,1.808,0,0,1-.321-.618A2.588,2.588,0,0,1,1704.923,1966.618Zm1.71,1.648a1.289,1.289,0,0,0,.613-.136,1.222,1.222,0,0,0,.422-.363,1.559,1.559,0,0,0,.244-.525,2.433,2.433,0,0,0,.079-.623,2.356,2.356,0,0,0-.094-.693,1.51,1.51,0,0,0-.272-.523,1.168,1.168,0,0,0-.433-.33,1.384,1.384,0,0,0-.57-.113,1.259,1.259,0,0,0-.608.139,1.242,1.242,0,0,0-.422.368,1.585,1.585,0,0,0-.244.528,2.529,2.529,0,0,0,0,1.251,1.555,1.555,0,0,0,.244.525,1.2,1.2,0,0,0,.422.36A1.322,1.322,0,0,0,1706.633,1968.266Z" transform="translate(-1698.842 -1964.661)"/>
        <path id="Path_167" data-name="Path 167" class="cls-1" d="M1769.146,1965.835a1.065,1.065,0,0,0-.4-.675,1.308,1.308,0,0,0-.758-.2,1.11,1.11,0,0,0-.964.494,1.6,1.6,0,0,0-.229.523,2.586,2.586,0,0,0-.074.626,2.911,2.911,0,0,0,.063.608,1.622,1.622,0,0,0,.211.533,1.125,1.125,0,0,0,.4.379,1.233,1.233,0,0,0,.626.144,1.143,1.143,0,0,0,.427-.077,1.063,1.063,0,0,0,.338-.214,1.25,1.25,0,0,0,.244-.322,1.633,1.633,0,0,0,.15-.407h.361a2.343,2.343,0,0,1-.178.507,1.45,1.45,0,0,1-.308.42,1.4,1.4,0,0,1-.463.286,1.763,1.763,0,0,1-.639.106,1.541,1.541,0,0,1-.722-.157,1.377,1.377,0,0,1-.491-.425,1.791,1.791,0,0,1-.277-.62,3.134,3.134,0,0,1-.087-.749,2.747,2.747,0,0,1,.13-.9,1.611,1.611,0,0,1,.359-.605,1.354,1.354,0,0,1,.539-.34,2.1,2.1,0,0,1,.677-.105,1.762,1.762,0,0,1,.521.075,1.279,1.279,0,0,1,.427.224,1.212,1.212,0,0,1,.305.368,1.558,1.558,0,0,1,.165.507Z" transform="translate(-1756.365 -1964.661)"/>
        <path id="Path_168" data-name="Path 168" class="cls-1" d="M1826.719,1969.9v-3.707h.346v1.921l1.877-1.921h.392l-1.445,1.478,1.7,2.23h-.422l-1.526-2.013-.575.582v1.432Z" transform="translate(-1812.844 -1966.091)"/>
        <path id="Path_169" data-name="Path 169" class="cls-1" d="M1901.673,1965.835a1.063,1.063,0,0,0-.4-.675,1.308,1.308,0,0,0-.758-.2,1.111,1.111,0,0,0-.964.494,1.6,1.6,0,0,0-.229.523,2.574,2.574,0,0,0-.074.626,2.911,2.911,0,0,0,.064.608,1.625,1.625,0,0,0,.211.533,1.125,1.125,0,0,0,.4.379,1.234,1.234,0,0,0,.626.144,1.142,1.142,0,0,0,.427-.077,1.065,1.065,0,0,0,.338-.214,1.244,1.244,0,0,0,.244-.322,1.633,1.633,0,0,0,.15-.407h.361a2.33,2.33,0,0,1-.178.507,1.445,1.445,0,0,1-.308.42,1.405,1.405,0,0,1-.463.286,1.762,1.762,0,0,1-.638.106,1.541,1.541,0,0,1-.723-.157,1.375,1.375,0,0,1-.491-.425,1.791,1.791,0,0,1-.277-.62,3.134,3.134,0,0,1-.087-.749,2.747,2.747,0,0,1,.13-.9,1.613,1.613,0,0,1,.359-.605,1.355,1.355,0,0,1,.539-.34,2.093,2.093,0,0,1,.677-.105,1.761,1.761,0,0,1,.521.075,1.278,1.278,0,0,1,.427.224,1.212,1.212,0,0,1,.305.368,1.561,1.561,0,0,1,.165.507Z" transform="translate(-1880.409 -1964.661)"/>
        <path id="Path_170" data-name="Path 170" class="cls-1" d="M1958.848,1969.9v-3.707h.346v1.591h2.167v-1.591h.346v3.707h-.346v-1.818h-2.167v1.818Z" transform="translate(-1936.516 -1966.091)"/>
        <path id="Path_171" data-name="Path 171" class="cls-1" d="M2011.08,1969.9l1.44-3.707h.392l1.4,3.707h-.356l-.422-1.164h-1.669l-.432,1.164Zm.906-1.462h1.435l-.717-1.947Z" transform="translate(-1985.405 -1966.091)"/>
        <path id="Path_172" data-name="Path 172" class="cls-1" d="M2071.262,1969.9v-3.707h.346v3.707Z" transform="translate(-2041.735 -1966.091)"/>
        <path id="Path_173" data-name="Path 173" class="cls-1" d="M2091.652,1966.663h-.01v3.234h-.346v-3.707h.392l2.117,3.239h.01v-3.239h.346v3.707h-.4Z" transform="translate(-2060.487 -1966.091)"/>
        <path id="Path_174" data-name="Path 174" class="cls-1" d="M2170.956,1969.9v-3.707h2.438v.3H2171.3v1.339h1.888v.3H2171.3v1.473h2.142v.3Z" transform="translate(-2135.049 -1966.091)"/>
        <path id="Path_175" data-name="Path 175" class="cls-1" d="M2219.727,1966.663h-.01v3.234h-.346v-3.707h.392l2.116,3.239h.01v-3.239h.346v3.707h-.4Z" transform="translate(-2180.365 -1966.091)"/>
        <path id="Path_176" data-name="Path 176" class="cls-1" d="M2276.4,1966.849v-.3h1.567v1.916h-.3v-.633a1.768,1.768,0,0,1-.221.3,1.214,1.214,0,0,1-.288.232,1.373,1.373,0,0,1-.376.147,2.074,2.074,0,0,1-.484.052,1.641,1.641,0,0,1-.641-.124,1.371,1.371,0,0,1-.509-.368,1.724,1.724,0,0,1-.333-.615,2.821,2.821,0,0,1-.12-.865,2.729,2.729,0,0,1,.1-.76,1.708,1.708,0,0,1,.313-.613,1.484,1.484,0,0,1,.529-.409,1.751,1.751,0,0,1,.75-.149,1.958,1.958,0,0,1,.542.072,1.428,1.428,0,0,1,.453.219,1.315,1.315,0,0,1,.339.365,1.553,1.553,0,0,1,.2.518h-.356a1.092,1.092,0,0,0-.155-.371,1.069,1.069,0,0,0-.262-.276,1.185,1.185,0,0,0-.341-.17,1.3,1.3,0,0,0-.392-.059,1.384,1.384,0,0,0-.621.129,1.142,1.142,0,0,0-.427.363,1.592,1.592,0,0,0-.247.561,3.055,3.055,0,0,0-.079.718,1.914,1.914,0,0,0,.089.587,1.5,1.5,0,0,0,.26.489,1.218,1.218,0,0,0,.979.458,1.469,1.469,0,0,0,.305-.033,1.18,1.18,0,0,0,.58-.312,1.139,1.139,0,0,0,.219-.3,1.336,1.336,0,0,0,.119-.366,2.712,2.712,0,0,0,.038-.4Z" transform="translate(-2232.157 -1964.661)"/>
        <path id="Path_177" data-name="Path 177" class="cls-1" d="M2340.69,1969.9v-3.707h.346v3.707Z" transform="translate(-2293.92 -1966.091)"/>
        <path id="Path_178" data-name="Path 178" class="cls-1" d="M2361.08,1966.663h-.01v3.234h-.346v-3.707h.392l2.116,3.239h.01v-3.239h.346v3.707h-.4Z" transform="translate(-2312.671 -1966.091)"/>
        <path id="Path_179" data-name="Path 179" class="cls-1" d="M2418.282,1969.9v-3.707h2.437v.3h-2.091v1.339h1.888v.3h-1.888v1.473h2.142v.3Z" transform="translate(-2366.545 -1966.091)"/>
        <path id="Path_180" data-name="Path 180" class="cls-1" d="M2466.857,1969.9v-3.707h2.438v.3H2467.2v1.339h1.888v.3H2467.2v1.473h2.142v.3Z" transform="translate(-2412.011 -1966.091)"/>
        <path id="Path_181" data-name="Path 181" class="cls-1" d="M2515.7,1968.213v1.684l-.346-.005v-3.7h1.435a1.582,1.582,0,0,1,.926.229.852.852,0,0,1,.32.744.975.975,0,0,1-.14.556,1.071,1.071,0,0,1-.455.35.571.571,0,0,1,.254.165.738.738,0,0,1,.137.247,1.27,1.27,0,0,1,.059.293q.012.154.018.3c0,.141.01.257.018.35a2.026,2.026,0,0,0,.031.227.507.507,0,0,0,.043.136.206.206,0,0,0,.061.075v.031l-.382.005a.687.687,0,0,1-.079-.257c-.015-.11-.027-.225-.036-.345s-.015-.237-.021-.35a2.085,2.085,0,0,0-.028-.278.584.584,0,0,0-.1-.239.453.453,0,0,0-.166-.136.707.707,0,0,0-.216-.062,1.91,1.91,0,0,0-.247-.016Zm1.079-.3a1.484,1.484,0,0,0,.359-.041.818.818,0,0,0,.288-.131.648.648,0,0,0,.193-.229.722.722,0,0,0,.071-.335.7.7,0,0,0-.074-.34.56.56,0,0,0-.2-.211.84.84,0,0,0-.285-.108,1.753,1.753,0,0,0-.333-.031h-1.1v1.426Z" transform="translate(-2457.404 -1966.091)"/>
        <path id="Path_182" data-name="Path 182" class="cls-1" d="M2570.367,1969.9v-3.707h.346v3.707Z" transform="translate(-2508.897 -1966.091)"/>
        <path id="Path_183" data-name="Path 183" class="cls-1" d="M2590.757,1966.663h-.01v3.234h-.346v-3.707h.392l2.117,3.239h.01v-3.239h.346v3.707h-.4Z" transform="translate(-2527.649 -1966.091)"/>
        <path id="Path_184" data-name="Path 184" class="cls-1" d="M2647.433,1966.849v-.3H2649v1.916h-.3v-.633a1.767,1.767,0,0,1-.221.3,1.219,1.219,0,0,1-.288.232,1.375,1.375,0,0,1-.376.147,2.071,2.071,0,0,1-.483.052,1.643,1.643,0,0,1-.641-.124,1.37,1.37,0,0,1-.509-.368,1.724,1.724,0,0,1-.333-.615,2.821,2.821,0,0,1-.12-.865,2.729,2.729,0,0,1,.1-.76,1.713,1.713,0,0,1,.313-.613,1.481,1.481,0,0,1,.529-.409,1.751,1.751,0,0,1,.75-.149,1.961,1.961,0,0,1,.542.072,1.425,1.425,0,0,1,.453.219,1.311,1.311,0,0,1,.339.365,1.548,1.548,0,0,1,.2.518h-.356a1.091,1.091,0,0,0-.155-.371,1.069,1.069,0,0,0-.262-.276,1.188,1.188,0,0,0-.341-.17,1.3,1.3,0,0,0-.392-.059,1.385,1.385,0,0,0-.621.129,1.146,1.146,0,0,0-.427.363,1.592,1.592,0,0,0-.247.561,3.068,3.068,0,0,0-.079.718,1.914,1.914,0,0,0,.089.587,1.5,1.5,0,0,0,.26.489,1.218,1.218,0,0,0,.979.458,1.467,1.467,0,0,0,.305-.033,1.18,1.18,0,0,0,.58-.312,1.134,1.134,0,0,0,.219-.3,1.337,1.337,0,0,0,.12-.366,2.815,2.815,0,0,0,.038-.4Z" transform="translate(-2579.44 -1964.661)"/>
      </g>
      <g id="Group_257" data-name="Group 257" transform="translate(1.543 63.479)">
        <path id="Path_185" data-name="Path 185" class="cls-1" d="M1610.947,1969.461h-1.528v-3.772h1.355a2.017,2.017,0,0,1,.558.068,1.04,1.04,0,0,1,.386.2.762.762,0,0,1,.22.309,1.087,1.087,0,0,1,.068.39,1.034,1.034,0,0,1-.053.348.788.788,0,0,1-.138.247.653.653,0,0,1-.2.157.3.3,0,1,0,.362.341,1.035,1.035,0,0,1,.192.637,1.238,1.238,0,0,1-.092.5.866.866,0,0,1-.256.337,1.022,1.022,0,0,1-.391.183A2.05,2.05,0,0,1,1610.947,1969.461Zm-1.464-.064h1.464a2,2,0,0,0,.473-.053.956.956,0,0,0,.367-.172.8.8,0,0,0,.237-.312,1.178,1.178,0,0,0,.086-.476.972.972,0,0,0-.179-.6.8.8,0,0,0-.546-.292l-.027,0v-.065l.026,0a.743.743,0,0,0,.207-.072.589.589,0,0,0,.176-.142.726.726,0,0,0,.127-.227.975.975,0,0,0,.049-.326,1.023,1.023,0,0,0-.064-.367.7.7,0,0,0-.2-.283.979.979,0,0,0-.362-.184,1.96,1.96,0,0,0-.541-.066h-1.291Zm1.194-.235h-.912v-1.537h.953a3.2,3.2,0,0,1,.447.029,1.048,1.048,0,0,1,.352.109.564.564,0,0,1,.232.232.821.821,0,0,1,.08.389.961.961,0,0,1-.072.4.536.536,0,0,1-.219.241.946.946,0,0,1-.361.11A4.187,4.187,0,0,1,1610.677,1969.162Zm-.848-.064h.848a4.106,4.106,0,0,0,.492-.026.88.88,0,0,0,.336-.1.472.472,0,0,0,.193-.212.9.9,0,0,0,.066-.375.76.76,0,0,0-.073-.358.5.5,0,0,0-.206-.206.981.981,0,0,0-.33-.1,3.148,3.148,0,0,0-.438-.028h-.889Zm.843-1.707h-.907v-1.4h.831a2.949,2.949,0,0,1,.486.034.94.94,0,0,1,.329.112.483.483,0,0,1,.19.21.737.737,0,0,1,.059.31.908.908,0,0,1-.05.312.536.536,0,0,1-.17.235.8.8,0,0,1-.307.143A1.927,1.927,0,0,1,1610.672,1967.391Zm-.843-.064h.843a1.861,1.861,0,0,0,.445-.045.738.738,0,0,0,.283-.13.475.475,0,0,0,.15-.208.842.842,0,0,0,.046-.29.675.675,0,0,0-.053-.283.417.417,0,0,0-.166-.182.871.871,0,0,0-.307-.1,2.887,2.887,0,0,0-.475-.033h-.767Z" transform="translate(-1609.419 -1965.689)"/>
      </g>
      <g id="Group_258" data-name="Group 258" transform="translate(4.937 63.479)">
        <path id="Path_186" data-name="Path 186" class="cls-1" d="M1664.82,1969.461h-2.374v-3.772h.41v3.409h1.964Zm-2.31-.064h2.246v-.235h-1.964v-3.409h-.282Z" transform="translate(-1662.446 -1965.689)"/>
      </g>
      <g id="Group_259" data-name="Group 259" transform="translate(7.623 63.381)">
        <path id="Path_187" data-name="Path 187" class="cls-1" d="M1706.16,1968.127a1.731,1.731,0,0,1-.757-.158,1.565,1.565,0,0,1-.545-.428,1.848,1.848,0,0,1-.326-.629h0a2.744,2.744,0,0,1,0-1.535,1.877,1.877,0,0,1,.329-.631,1.575,1.575,0,0,1,.54-.428,1.674,1.674,0,0,1,.742-.158,1.788,1.788,0,0,1,.764.155,1.559,1.559,0,0,1,.551.426,1.856,1.856,0,0,1,.331.634,2.648,2.648,0,0,1,.111.774,2.579,2.579,0,0,1-.111.764,1.886,1.886,0,0,1-.329.629,1.566,1.566,0,0,1-.545.428A1.732,1.732,0,0,1,1706.16,1968.127Zm-1.567-1.233a1.789,1.789,0,0,0,.315.607,1.5,1.5,0,0,0,.523.411,1.834,1.834,0,0,0,1.458,0,1.5,1.5,0,0,0,.523-.411,1.819,1.819,0,0,0,.318-.607,2.513,2.513,0,0,0,.108-.745,2.588,2.588,0,0,0-.108-.755,1.794,1.794,0,0,0-.32-.612,1.5,1.5,0,0,0-.528-.408,1.724,1.724,0,0,0-.737-.149,1.611,1.611,0,0,0-.714.151,1.512,1.512,0,0,0-.518.411,1.815,1.815,0,0,0-.318.61,2.683,2.683,0,0,0,0,1.5Zm1.572.935a1.362,1.362,0,0,1-.633-.137,1.239,1.239,0,0,1-.433-.37,1.592,1.592,0,0,1-.249-.536,2.556,2.556,0,0,1,0-1.268,1.622,1.622,0,0,1,.249-.538,1.278,1.278,0,0,1,.433-.378,1.3,1.3,0,0,1,.623-.143,1.425,1.425,0,0,1,.583.116,1.206,1.206,0,0,1,.444.338,1.55,1.55,0,0,1,.278.534,2.4,2.4,0,0,1,.1.7,2.479,2.479,0,0,1-.08.631,1.6,1.6,0,0,1-.249.536,1.267,1.267,0,0,1-.433.372A1.328,1.328,0,0,1,1706.166,1967.829Zm-.01-3.306a1.235,1.235,0,0,0-.593.135,1.216,1.216,0,0,0-.412.359,1.556,1.556,0,0,0-.239.517,2.491,2.491,0,0,0,0,1.235,1.526,1.526,0,0,0,.239.515,1.177,1.177,0,0,0,.411.351h0a1.3,1.3,0,0,0,.6.13,1.265,1.265,0,0,0,.6-.133,1.2,1.2,0,0,0,.411-.354,1.528,1.528,0,0,0,.239-.515,2.41,2.41,0,0,0,.078-.615,2.334,2.334,0,0,0-.093-.683,1.489,1.489,0,0,0-.266-.512,1.142,1.142,0,0,0-.421-.321A1.362,1.362,0,0,0,1706.155,1964.523Z" transform="translate(-1704.424 -1964.16)"/>
      </g>
      <g id="Group_260" data-name="Group 260" transform="translate(11.557 63.381)">
        <path id="Path_188" data-name="Path 188" class="cls-1" d="M1767.488,1968.128a1.581,1.581,0,0,1-.737-.161,1.415,1.415,0,0,1-.5-.435,1.83,1.83,0,0,1-.282-.631,3.174,3.174,0,0,1-.087-.757,2.788,2.788,0,0,1,.131-.911,1.653,1.653,0,0,1,.366-.617,1.4,1.4,0,0,1,.552-.348,2.136,2.136,0,0,1,.687-.107,1.8,1.8,0,0,1,.531.076,1.315,1.315,0,0,1,.438.23,1.249,1.249,0,0,1,.313.378,1.6,1.6,0,0,1,.169.518l.006.037h-.419l-.006-.025a1.037,1.037,0,0,0-.384-.655,1.28,1.28,0,0,0-.74-.2,1.078,1.078,0,0,0-.938.48,1.577,1.577,0,0,0-.224.512,2.564,2.564,0,0,0-.073.618,2.882,2.882,0,0,0,.063.6,1.6,1.6,0,0,0,.207.523,1.1,1.1,0,0,0,.386.368,1.206,1.206,0,0,0,.61.14,1.118,1.118,0,0,0,.416-.075,1.038,1.038,0,0,0,.328-.207,1.212,1.212,0,0,0,.238-.314,1.608,1.608,0,0,0,.147-.4l.006-.025h.427l-.009.039a2.375,2.375,0,0,1-.18.514,1.486,1.486,0,0,1-.315.429,1.441,1.441,0,0,1-.474.292A1.8,1.8,0,0,1,1767.488,1968.128Zm.127-3.9a2.067,2.067,0,0,0-.667.1,1.325,1.325,0,0,0-.527.332,1.589,1.589,0,0,0-.351.593,2.727,2.727,0,0,0-.128.89,3.117,3.117,0,0,0,.086.742,1.767,1.767,0,0,0,.272.61,1.352,1.352,0,0,0,.48.415,1.518,1.518,0,0,0,.708.153,1.742,1.742,0,0,0,.627-.1,1.384,1.384,0,0,0,.453-.279,1.419,1.419,0,0,0,.3-.411,2.3,2.3,0,0,0,.167-.461h-.3a1.652,1.652,0,0,1-.147.39,1.277,1.277,0,0,1-.25.33,1.1,1.1,0,0,1-.348.22,1.181,1.181,0,0,1-.439.079,1.271,1.271,0,0,1-.642-.148,1.162,1.162,0,0,1-.408-.389,1.666,1.666,0,0,1-.216-.544,2.951,2.951,0,0,1-.064-.614,2.625,2.625,0,0,1,.075-.633,1.635,1.635,0,0,1,.234-.533,1.142,1.142,0,0,1,.991-.508,1.342,1.342,0,0,1,.776.206,1.084,1.084,0,0,1,.4.669H1769a1.513,1.513,0,0,0-.156-.46,1.186,1.186,0,0,0-.3-.359,1.246,1.246,0,0,0-.417-.218A1.73,1.73,0,0,0,1767.616,1964.225Z" transform="translate(-1765.879 -1964.161)"/>
      </g>
      <g id="Group_261" data-name="Group 261" transform="translate(15.419 63.479)">
        <path id="Path_189" data-name="Path 189" class="cls-1" d="M1829.186,1969.461h-.5l-1.514-2-.54.546v1.45h-.41v-3.772h.41v1.874l1.832-1.874h.481l-1.479,1.512Zm-.471-.064h.342l-1.677-2.2,1.411-1.443h-.3l-1.923,1.967v-1.967h-.282v3.643h.282v-1.413l.61-.617Z" transform="translate(-1826.22 -1965.689)"/>
      </g>
      <g id="Group_262" data-name="Group 262" transform="translate(20.039 63.381)">
        <path id="Path_190" data-name="Path 190" class="cls-1" d="M1900.016,1968.128a1.582,1.582,0,0,1-.737-.161,1.415,1.415,0,0,1-.5-.435,1.83,1.83,0,0,1-.282-.631,3.174,3.174,0,0,1-.088-.757,2.788,2.788,0,0,1,.132-.911,1.65,1.65,0,0,1,.366-.617,1.4,1.4,0,0,1,.552-.348,2.137,2.137,0,0,1,.687-.107,1.8,1.8,0,0,1,.531.076,1.315,1.315,0,0,1,.438.23,1.25,1.25,0,0,1,.313.378,1.6,1.6,0,0,1,.169.518l.006.037h-.419l-.006-.025a1.037,1.037,0,0,0-.384-.655,1.281,1.281,0,0,0-.74-.2,1.078,1.078,0,0,0-.938.48,1.577,1.577,0,0,0-.224.512,2.564,2.564,0,0,0-.073.618,2.882,2.882,0,0,0,.063.6,1.6,1.6,0,0,0,.207.523,1.1,1.1,0,0,0,.386.368,1.207,1.207,0,0,0,.61.14,1.118,1.118,0,0,0,.416-.075,1.039,1.039,0,0,0,.328-.207,1.216,1.216,0,0,0,.238-.314,1.612,1.612,0,0,0,.147-.4l.006-.025h.427l-.009.039a2.375,2.375,0,0,1-.181.514,1.482,1.482,0,0,1-.315.429,1.439,1.439,0,0,1-.473.292A1.8,1.8,0,0,1,1900.016,1968.128Zm.127-3.9a2.067,2.067,0,0,0-.666.1,1.326,1.326,0,0,0-.527.332,1.587,1.587,0,0,0-.351.593,2.727,2.727,0,0,0-.128.89,3.11,3.11,0,0,0,.086.742,1.767,1.767,0,0,0,.272.61,1.352,1.352,0,0,0,.48.415,1.518,1.518,0,0,0,.708.153,1.742,1.742,0,0,0,.627-.1,1.384,1.384,0,0,0,.453-.279,1.423,1.423,0,0,0,.3-.411,2.293,2.293,0,0,0,.166-.461h-.3a1.654,1.654,0,0,1-.147.39,1.276,1.276,0,0,1-.25.33,1.1,1.1,0,0,1-.348.22,1.18,1.18,0,0,1-.439.079,1.271,1.271,0,0,1-.642-.148,1.163,1.163,0,0,1-.408-.389,1.663,1.663,0,0,1-.215-.544,2.951,2.951,0,0,1-.064-.614,2.631,2.631,0,0,1,.075-.633,1.638,1.638,0,0,1,.234-.533,1.142,1.142,0,0,1,.991-.508,1.343,1.343,0,0,1,.776.206,1.084,1.084,0,0,1,.4.669h.293a1.512,1.512,0,0,0-.156-.46,1.184,1.184,0,0,0-.3-.359,1.248,1.248,0,0,0-.417-.218A1.731,1.731,0,0,0,1900.144,1964.225Z" transform="translate(-1898.407 -1964.161)"/>
      </g>
      <g id="Group_263" data-name="Group 263" transform="translate(23.875 63.479)">
        <path id="Path_191" data-name="Path 191" class="cls-1" d="M1961.273,1969.461h-.41v-1.818h-2.1v1.818h-.41v-3.772h.41v1.591h2.1v-1.591h.41Zm-.346-.064h.282v-3.643h-.282v1.591H1958.7v-1.591h-.282v3.643h.282v-1.818h2.232Z" transform="translate(-1958.35 -1965.689)"/>
      </g>
      <g id="Group_264" data-name="Group 264" transform="translate(27.203 63.479)">
        <path id="Path_192" data-name="Path 192" class="cls-1" d="M2013.68,1969.461h-.425l-.422-1.164h-1.624l-.432,1.164h-.425l1.465-3.772h.436l.008.021Zm-.38-.064h.287l-1.38-3.643h-.348l-1.415,3.643h.287l.433-1.164h1.714Zm-.516-1.4h-1.527l.763-2.071Zm-1.435-.064h1.343l-.672-1.822Z" transform="translate(-2010.351 -1965.689)"/>
      </g>
      <g id="Group_265" data-name="Group 265" transform="translate(31.07 63.479)">
        <path id="Path_193" data-name="Path 193" class="cls-1" d="M2071.174,1969.461h-.41v-3.772h.41Zm-.346-.064h.282v-3.644h-.282Z" transform="translate(-2070.764 -1965.689)"/>
      </g>
      <g id="Group_266" data-name="Group 266" transform="translate(32.352 63.479)">
        <path id="Path_194" data-name="Path 194" class="cls-1" d="M2093.728,1969.461h-.451l-.009-.015-2.058-3.159v3.174h-.41v-3.772h.441l.01.015,2.068,3.165v-3.179h.41Zm-.416-.064h.353v-3.643h-.282v3.239h-.06l-.009-.015-2.107-3.224h-.343v3.643h.282v-3.234h.06l.01.015Z" transform="translate(-2090.799 -1965.689)"/>
      </g>
      <g id="Group_267" data-name="Group 267" transform="translate(37.45 63.479)">
        <path id="Path_195" data-name="Path 195" class="cls-1" d="M2173.011,1969.461h-2.552v-3.772h2.5v.363h-2.091v1.275h1.888v.363h-1.888v1.409h2.142Zm-2.488-.064h2.424v-.235H2170.8v-1.537h1.888v-.235H2170.8v-1.4h2.091v-.235h-2.373Z" transform="translate(-2170.459 -1965.689)"/>
      </g>
      <g id="Group_268" data-name="Group 268" transform="translate(40.549 63.479)">
        <path id="Path_196" data-name="Path 196" class="cls-1" d="M2221.8,1969.461h-.451l-.01-.015-2.058-3.159v3.174h-.41v-3.772h.441l.01.015,2.068,3.165v-3.179h.41Zm-.416-.064h.352v-3.643h-.282v3.239h-.06l-.01-.015-2.107-3.224h-.343v3.643h.282v-3.234h.06l.009.015Z" transform="translate(-2218.875 -1965.689)"/>
      </g>
      <g id="Group_269" data-name="Group 269" transform="translate(44.09 63.381)">
        <path id="Path_197" data-name="Path 197" class="cls-1" d="M2275.843,1968.127a1.683,1.683,0,0,1-.654-.126,1.408,1.408,0,0,1-.52-.377,1.764,1.764,0,0,1-.34-.627,2.868,2.868,0,0,1-.121-.875,2.781,2.781,0,0,1,.1-.768,1.755,1.755,0,0,1,.319-.624,1.52,1.52,0,0,1,.54-.418,1.791,1.791,0,0,1,.764-.152,2.006,2.006,0,0,1,.551.073,1.468,1.468,0,0,1,.463.224,1.35,1.35,0,0,1,.347.375,1.59,1.59,0,0,1,.2.528l.008.038h-.421l-.006-.025a1.072,1.072,0,0,0-.151-.36,1.045,1.045,0,0,0-.254-.267,1.16,1.16,0,0,0-.332-.165,1.278,1.278,0,0,0-.382-.058,1.357,1.357,0,0,0-.607.125,1.114,1.114,0,0,0-.416.353,1.57,1.57,0,0,0-.242.55,3.041,3.041,0,0,0-.078.711,1.889,1.889,0,0,0,.088.577,1.469,1.469,0,0,0,.254.479,1.187,1.187,0,0,0,.955.447,1.434,1.434,0,0,0,.3-.033,1.142,1.142,0,0,0,.564-.3,1.105,1.105,0,0,0,.212-.3,1.309,1.309,0,0,0,.117-.357,2.655,2.655,0,0,0,.037-.364h-1.235v-.363h1.631v1.98h-.359v-.554a1.832,1.832,0,0,1-.166.212,1.255,1.255,0,0,1-.3.238,1.422,1.422,0,0,1-.385.15A2.121,2.121,0,0,1,2275.843,1968.127Zm.092-3.9a1.727,1.727,0,0,0-.737.146,1.457,1.457,0,0,0-.518.4,1.685,1.685,0,0,0-.307.6,2.711,2.711,0,0,0-.1.751,2.81,2.81,0,0,0,.118.855,1.707,1.707,0,0,0,.327.6,1.346,1.346,0,0,0,.5.36,1.618,1.618,0,0,0,.629.121,2.045,2.045,0,0,0,.476-.051,1.361,1.361,0,0,0,.368-.143,1.2,1.2,0,0,0,.28-.226,1.75,1.75,0,0,0,.217-.3l.06-.1v.719h.231v-1.852h-1.5v.235h1.237v.033a2.794,2.794,0,0,1-.039.406,1.375,1.375,0,0,1-.122.374,1.175,1.175,0,0,1-.225.313,1.21,1.21,0,0,1-.6.32,1.5,1.5,0,0,1-.312.034,1.249,1.249,0,0,1-1-.47,1.536,1.536,0,0,1-.265-.5,1.955,1.955,0,0,1-.091-.6,3.1,3.1,0,0,1,.08-.726,1.632,1.632,0,0,1,.252-.572,1.18,1.18,0,0,1,.439-.373,1.423,1.423,0,0,1,.635-.132,1.344,1.344,0,0,1,.4.061,1.228,1.228,0,0,1,.35.175,1.105,1.105,0,0,1,.27.284,1.125,1.125,0,0,1,.154.357h.291a1.5,1.5,0,0,0-.186-.469,1.283,1.283,0,0,0-.33-.357,1.4,1.4,0,0,0-.443-.214A1.941,1.941,0,0,0,2275.934,1964.224Z" transform="translate(-2274.208 -1964.16)"/>
      </g>
      <g id="Group_270" data-name="Group 270" transform="translate(48.314 63.479)">
        <path id="Path_198" data-name="Path 198" class="cls-1" d="M2340.6,1969.461h-.41v-3.772h.41Zm-.346-.064h.282v-3.644h-.282Z" transform="translate(-2340.195 -1965.689)"/>
      </g>
      <g id="Group_271" data-name="Group 271" transform="translate(49.596 63.479)">
        <path id="Path_199" data-name="Path 199" class="cls-1" d="M2363.156,1969.461h-.451l-.009-.015-2.058-3.159v3.174h-.41v-3.772h.441l.01.015,2.068,3.165v-3.179h.41Zm-.417-.064h.353v-3.643h-.282v3.239h-.06l-.01-.015-2.107-3.224h-.343v3.643h.282v-3.234h.06l.009.015Z" transform="translate(-2360.228 -1965.689)"/>
      </g>
      <g id="Group_272" data-name="Group 272" transform="translate(53.28 63.479)">
        <path id="Path_200" data-name="Path 200" class="cls-1" d="M2420.339,1969.461h-2.552v-3.772h2.5v.363H2418.2v1.275h1.888v.363H2418.2v1.409h2.142Zm-2.488-.064h2.424v-.235h-2.142v-1.537h1.887v-.235h-1.887v-1.4h2.091v-.235h-2.373Z" transform="translate(-2417.787 -1965.689)"/>
      </g>
      <g id="Group_273" data-name="Group 273" transform="translate(56.389 63.479)">
        <path id="Path_201" data-name="Path 201" class="cls-1" d="M2468.914,1969.461h-2.552v-3.772h2.5v.363h-2.091v1.275h1.888v.363h-1.888v1.409h2.143Zm-2.488-.064h2.424v-.235h-2.142v-1.537h1.888v-.235h-1.888v-1.4h2.091v-.235h-2.373Z" transform="translate(-2466.362 -1965.689)"/>
      </g>
      <g id="Group_274" data-name="Group 274" transform="translate(59.492 63.479)">
        <path id="Path_202" data-name="Path 202" class="cls-1" d="M2515.268,1969.461l-.41-.006v-3.766h1.467a1.619,1.619,0,0,1,.945.235.885.885,0,0,1,.334.77,1.01,1.01,0,0,1-.146.574,1.047,1.047,0,0,1-.4.329.57.57,0,0,1,.2.147.773.773,0,0,1,.143.258,1.3,1.3,0,0,1,.06.3c.009.1.015.206.018.3,0,.14.009.257.018.348a2.249,2.249,0,0,0,.03.223.509.509,0,0,0,.04.128.18.18,0,0,0,.051.063l.014.01v.079l-.432.006-.01-.016a.718.718,0,0,1-.083-.27c-.015-.112-.028-.228-.036-.347s-.015-.24-.02-.351a2.035,2.035,0,0,0-.027-.274.555.555,0,0,0-.094-.226.42.42,0,0,0-.154-.127.675.675,0,0,0-.207-.059,1.9,1.9,0,0,0-.243-.015h-1.057Zm-.064-1.748h1.121a1.985,1.985,0,0,1,.251.016.745.745,0,0,1,.226.065.487.487,0,0,1,.177.146.616.616,0,0,1,.1.252,2.089,2.089,0,0,1,.029.283c0,.111.011.229.02.349s.02.233.035.343a.7.7,0,0,0,.065.23l.315,0a.262.262,0,0,1-.041-.059.577.577,0,0,1-.046-.145,2.211,2.211,0,0,1-.031-.23c-.009-.093-.014-.211-.018-.352,0-.093-.009-.193-.017-.3a1.253,1.253,0,0,0-.057-.286.7.7,0,0,0-.131-.236.543.543,0,0,0-.24-.155l-.075-.026.073-.033a1.041,1.041,0,0,0,.442-.339.948.948,0,0,0,.135-.538.825.825,0,0,0-.307-.718,1.557,1.557,0,0,0-.907-.223h-1.4v3.639l.282,0Zm1.111-.235H2515.2v-1.49h1.131a1.807,1.807,0,0,1,.339.031.872.872,0,0,1,.3.112.6.6,0,0,1,.209.223.732.732,0,0,1,.078.355.765.765,0,0,1-.075.349.682.682,0,0,1-.2.24.84.84,0,0,1-.3.137A1.522,1.522,0,0,1,2516.314,1967.478Zm-1.047-.064h1.047a1.462,1.462,0,0,0,.351-.04.776.776,0,0,0,.276-.126.615.615,0,0,0,.184-.218.7.7,0,0,0,.068-.32.671.671,0,0,0-.07-.324.531.531,0,0,0-.187-.2.8.8,0,0,0-.274-.1,1.72,1.72,0,0,0-.327-.03h-1.067Z" transform="translate(-2514.858 -1965.689)"/>
      </g>
      <g id="Group_275" data-name="Group 275" transform="translate(63.014 63.479)">
        <path id="Path_203" data-name="Path 203" class="cls-1" d="M2570.283,1969.461h-.41v-3.772h.41Zm-.346-.064h.282v-3.644h-.282Z" transform="translate(-2569.873 -1965.689)"/>
      </g>
      <g id="Group_276" data-name="Group 276" transform="translate(64.296 63.479)">
        <path id="Path_204" data-name="Path 204" class="cls-1" d="M2592.836,1969.461h-.451l-.01-.015-2.058-3.159v3.174h-.41v-3.772h.441l.01.015,2.068,3.165v-3.179h.41Zm-.417-.064h.353v-3.643h-.282v3.239h-.06l-.01-.015-2.107-3.224h-.343v3.643h.282v-3.234h.06l.009.015Z" transform="translate(-2589.908 -1965.689)"/>
      </g>
      <g id="Group_277" data-name="Group 277" transform="translate(67.837 63.381)">
        <path id="Path_205" data-name="Path 205" class="cls-1" d="M2646.875,1968.127a1.683,1.683,0,0,1-.654-.126,1.411,1.411,0,0,1-.521-.377,1.767,1.767,0,0,1-.34-.627,2.86,2.86,0,0,1-.121-.875,2.781,2.781,0,0,1,.1-.768,1.755,1.755,0,0,1,.319-.624,1.517,1.517,0,0,1,.54-.418,1.791,1.791,0,0,1,.764-.152,2.008,2.008,0,0,1,.551.073,1.468,1.468,0,0,1,.463.224,1.346,1.346,0,0,1,.347.375,1.6,1.6,0,0,1,.2.528l.008.038h-.421l-.005-.025a1.074,1.074,0,0,0-.151-.36,1.04,1.04,0,0,0-.254-.267,1.156,1.156,0,0,0-.332-.165,1.278,1.278,0,0,0-.382-.058,1.356,1.356,0,0,0-.606.125,1.115,1.115,0,0,0-.416.353,1.579,1.579,0,0,0-.242.55,3.051,3.051,0,0,0-.078.711,1.889,1.889,0,0,0,.088.577,1.465,1.465,0,0,0,.254.479,1.186,1.186,0,0,0,.955.447,1.434,1.434,0,0,0,.3-.033,1.142,1.142,0,0,0,.564-.3,1.109,1.109,0,0,0,.212-.3,1.312,1.312,0,0,0,.117-.357,2.662,2.662,0,0,0,.037-.364h-1.235v-.363h1.631v1.98h-.359v-.554a1.816,1.816,0,0,1-.166.212,1.264,1.264,0,0,1-.295.238,1.425,1.425,0,0,1-.385.15A2.117,2.117,0,0,1,2646.875,1968.127Zm.092-3.9a1.727,1.727,0,0,0-.737.146,1.46,1.46,0,0,0-.518.4,1.688,1.688,0,0,0-.307.6,2.7,2.7,0,0,0-.1.751,2.8,2.8,0,0,0,.118.855,1.707,1.707,0,0,0,.327.6,1.346,1.346,0,0,0,.5.36,1.617,1.617,0,0,0,.629.121,2.045,2.045,0,0,0,.476-.051,1.364,1.364,0,0,0,.368-.143,1.205,1.205,0,0,0,.28-.226,1.746,1.746,0,0,0,.217-.3l.06-.1v.719h.231v-1.852H2647v.235h1.237v.033a2.8,2.8,0,0,1-.039.406,1.376,1.376,0,0,1-.122.374,1.177,1.177,0,0,1-.225.313,1.209,1.209,0,0,1-.6.32,1.5,1.5,0,0,1-.312.034,1.249,1.249,0,0,1-1-.47,1.531,1.531,0,0,1-.265-.5,1.955,1.955,0,0,1-.091-.6,3.113,3.113,0,0,1,.08-.726,1.632,1.632,0,0,1,.252-.572,1.178,1.178,0,0,1,.439-.373,1.422,1.422,0,0,1,.635-.132,1.345,1.345,0,0,1,.4.061,1.226,1.226,0,0,1,.35.175,1.1,1.1,0,0,1,.27.284,1.125,1.125,0,0,1,.154.356h.291a1.5,1.5,0,0,0-.186-.469,1.287,1.287,0,0,0-.33-.357,1.4,1.4,0,0,0-.443-.214A1.939,1.939,0,0,0,2646.966,1964.224Z" transform="translate(-2645.24 -1964.16)"/>
      </g>
    </g>
  </g>
</svg>
